<svg xmlns="http://www.w3.org/2000/svg" width="24.769" height="24.769" viewBox="0 0 24.769 24.769">
  <g id="Group_454" data-name="Group 454" transform="translate(-916.608 -9339.004)">
    <path id="Path_38" data-name="Path 38" d="M8.606,1.75H19.663a6.863,6.863,0,0,1,6.856,6.856V19.663a6.863,6.863,0,0,1-6.856,6.856H8.606A6.863,6.863,0,0,1,1.75,19.663V8.606A6.863,6.863,0,0,1,8.606,1.75ZM19.663,23.865a4.207,4.207,0,0,0,4.2-4.2V8.606a4.207,4.207,0,0,0-4.2-4.2H8.606a4.207,4.207,0,0,0-4.2,4.2V19.663a4.207,4.207,0,0,0,4.2,4.2Z" transform="translate(914.858 9337.254)" fill="#ff4414"/>
    <path id="Path_39" data-name="Path 39" d="M16.563,10.685a5.781,5.781,0,0,1,.845.062A5.75,5.75,0,0,1,19.15,21.571a5.776,5.776,0,0,1-2.584.614,5.75,5.75,0,0,1,0-11.5Zm0,8.846a3.1,3.1,0,1,0-2.191-.907A3.077,3.077,0,0,0,16.566,19.531Z" transform="translate(912.476 9334.906)" fill="#ff4414"/>
  </g>
</svg>
