<svg xmlns="http://www.w3.org/2000/svg" width="22.149" height="22.147" viewBox="0 0 22.149 22.147">
  <path id="Icon_awesome-linkedin-in" data-name="Icon awesome-linkedin-in" d="M4.958,22.149H.366V7.362H4.958Zm-2.3-16.8A2.672,2.672,0,1,1,5.319,2.66,2.682,2.682,0,0,1,2.659,5.345Zm19.484,16.8H17.562v-7.2c0-1.716-.035-3.916-2.387-3.916-2.387,0-2.753,1.864-2.753,3.792v7.322H7.834V7.362h4.4V9.379H12.3a4.825,4.825,0,0,1,4.345-2.388c4.647,0,5.5,3.06,5.5,7.035v8.123Z" transform="translate(0 -0.001)" fill="#ff4414"/>
</svg>
