<svg xmlns="http://www.w3.org/2000/svg" width="27.265" height="22.145" viewBox="0 0 27.265 22.145">
  <path id="Icon_awesome-twitter" data-name="Icon awesome-twitter" d="M24.462,8.9c.017.242.017.484.017.727a15.79,15.79,0,0,1-15.9,15.9A15.791,15.791,0,0,1,0,23.017a11.559,11.559,0,0,0,1.349.069A11.191,11.191,0,0,0,8.287,20.7a5.6,5.6,0,0,1-5.225-3.875,7.047,7.047,0,0,0,1.055.086,5.91,5.91,0,0,0,1.471-.19,5.589,5.589,0,0,1-4.481-5.484v-.069a5.628,5.628,0,0,0,2.526.709A5.6,5.6,0,0,1,1.9,4.4a15.884,15.884,0,0,0,11.522,5.847,6.308,6.308,0,0,1-.138-1.28,5.593,5.593,0,0,1,9.671-3.823A11,11,0,0,0,26.5,3.8a5.573,5.573,0,0,1-2.457,3.079,11.2,11.2,0,0,0,3.218-.865,12.012,12.012,0,0,1-2.8,2.889Z" transform="translate(0 -3.381)" fill="#ff4414"/>
</svg>
