<svg xmlns="http://www.w3.org/2000/svg" width="34.168" height="28.816" viewBox="907.209 9334.957 34.168 28.816"><g data-name="Icon feather-instagram"><path d="M923.464 9339.004h11.058a6.863 6.863 0 0 1 6.855 6.856v11.057a6.863 6.863 0 0 1-6.855 6.856h-11.058a6.863 6.863 0 0 1-6.855-6.856v-11.057a6.863 6.863 0 0 1 6.855-6.856Zm11.058 22.115a4.207 4.207 0 0 0 4.202-4.202v-11.057a4.207 4.207 0 0 0-4.202-4.202h-11.058a4.207 4.207 0 0 0-4.202 4.202v11.057a4.207 4.207 0 0 0 4.202 4.202h11.058Z" fill="#ff4414" fill-rule="evenodd" data-name="Path 38"/><path d="M929.04 9345.59c.28 0 .565.022.844.063a5.71 5.71 0 0 1 3.223 1.622 5.71 5.71 0 0 1 1.622 3.222 5.74 5.74 0 0 1-3.103 5.98 5.776 5.776 0 0 1-2.584.614 5.714 5.714 0 0 1-4.067-1.684 5.74 5.74 0 0 1-1.07-6.651 5.744 5.744 0 0 1 5.134-3.165Zm.002 8.847a3.09 3.09 0 0 0 3.061-3.55 3.078 3.078 0 0 0-3.064-2.642 3.08 3.08 0 0 0-2.764 1.704 3.09 3.09 0 0 0 .577 3.581 3.077 3.077 0 0 0 2.19.907Z" fill="#ff4414" fill-rule="evenodd" data-name="Path 39"/></g></svg>