<svg xmlns="http://www.w3.org/2000/svg" width="22.149" height="22.148" viewBox="992.244 9339.27 22.149 22.148"><path d="M997.202 9361.417h-4.592v-14.787h4.592v14.787Zm-2.299-16.804c-1.468 0-2.659-1.216-2.659-2.684a2.66 2.66 0 1 1 5.319 0c0 1.468-1.192 2.684-2.66 2.684Zm19.485 16.804h-4.582v-7.198c0-1.715-.035-3.915-2.388-3.915-2.387 0-2.753 1.863-2.753 3.792v7.321h-4.587v-14.787h4.404v2.017h.065c.613-1.161 2.11-2.388 4.344-2.388 4.648 0 5.502 3.06 5.502 7.036v8.122Z" fill="#ff4414" fill-rule="evenodd" data-name="Icon awesome-linkedin-in"/></svg>