<svg xmlns="http://www.w3.org/2000/svg" width="27.265" height="22.145" viewBox="1062.305 9340.331 27.265 22.145"><path d="M1086.767 9345.85c.017.242.017.484.017.726 0 7.387-5.622 15.9-15.898 15.9-3.166 0-6.107-.918-8.581-2.51.45.053.882.07 1.35.07 2.611 0 5.016-.882 6.936-2.388a5.598 5.598 0 0 1-5.224-3.875c.346.052.692.087 1.055.087a5.91 5.91 0 0 0 1.47-.19 5.589 5.589 0 0 1-4.48-5.485v-.069a5.628 5.628 0 0 0 2.526.71 5.584 5.584 0 0 1-2.492-4.654c0-1.038.277-1.99.762-2.82a15.884 15.884 0 0 0 11.522 5.847 6.308 6.308 0 0 1-.139-1.28 5.585 5.585 0 0 1 5.588-5.588c1.609 0 3.062.675 4.083 1.765a11.002 11.002 0 0 0 3.547-1.35 5.573 5.573 0 0 1-2.457 3.08 11.202 11.202 0 0 0 3.218-.865 12.012 12.012 0 0 1-2.803 2.889Z" fill="#ff4414" fill-rule="evenodd" data-name="Icon awesome-twitter"/></svg>